<svg xmlns="http://www.w3.org/2000/svg" width="512" height="512" viewBox="0 0 512 512">
<g>
<path d="M 228.84 307.35 C227.86,309.13 228.75,309.18 253.66,308.75 C281.58,308.26 285.60,307.62 299.47,301.48 C311.57,296.11 325.20,285.03 334.92,272.65 C342.62,262.83 349.76,245.77 352.02,231.76 C353.19,224.55 352.92,204.53 351.53,195.00 C351.04,191.64 351.06,191.61 351.97,194.41 C352.49,196.02 353.44,197.66 354.09,198.05 C355.17,198.72 355.50,200.09 355.89,205.50 C356.01,207.17 356.19,207.25 357.00,206.00 C357.75,204.83 357.97,205.11 357.98,207.26 C357.99,208.78 358.39,210.81 358.87,211.76 C361.35,216.75 362.38,221.02 362.23,225.75 C362.13,228.64 362.45,231.00 362.93,231.00 C364.31,231.00 368.00,237.87 368.00,240.43 C368.00,245.26 374.55,246.66 376.49,242.25 C377.35,240.27 378.21,240.00 383.54,240.00 C389.80,240.00 392.00,238.91 392.00,235.82 C392.00,234.69 393.00,233.82 394.75,233.45 C399.06,232.53 402.00,231.14 402.00,230.02 C402.00,229.46 403.11,229.00 404.48,229.00 C406.02,229.00 407.57,228.05 408.59,226.50 C409.49,225.12 411.02,224.00 411.99,224.00 C414.03,224.00 415.63,222.31 416.14,219.61 C416.34,218.57 417.29,217.33 418.25,216.86 L 421.75 215.14 C422.71,214.67 423.66,213.43 423.87,212.39 C424.32,210.06 425.80,209.04 428.75,209.02 C429.99,209.01 431.84,208.16 432.86,207.14 C434.96,205.04 438.66,203.88 444.50,203.48 C446.70,203.33 448.92,203.16 449.44,203.11 C449.95,203.05 449.12,201.69 447.59,200.10 C444.59,196.97 444.46,194.22 447.25,192.86 C448.21,192.39 449.79,191.62 450.75,191.15 C451.71,190.68 452.64,189.39 452.80,188.29 C452.97,187.19 454.20,185.69 455.55,184.97 C457.26,184.06 458.00,182.81 458.00,180.83 C458.00,178.32 458.35,178.00 461.19,178.00 C464.79,178.00 469.00,174.67 469.00,171.81 C469.00,170.26 469.69,170.01 473.25,170.23 L 477.50 170.50 L 478.29 145.50 C479.47,107.89 478.80,87.94 476.11,80.50 C473.02,71.95 471.67,69.09 470.94,69.54 C470.59,69.76 469.72,68.19 469.02,66.05 C468.31,63.92 465.73,59.99 463.28,57.33 C457.61,51.18 456.77,49.63 458.29,48.11 C459.06,47.34 459.13,46.66 458.49,46.21 C457.95,45.82 457.45,40.78 457.38,35.00 C457.32,29.23 456.93,23.04 456.52,21.25 C456.11,19.46 456.16,18.00 456.64,18.00 C457.11,18.00 457.56,16.88 457.64,15.51 C457.72,14.13 457.39,13.26 456.89,13.57 C455.56,14.39 455.81,12.60 457.25,11.05 C458.25,9.98 458.25,9.85 457.25,10.41 C455.72,11.28 455.60,9.80 457.08,8.32 C457.84,7.56 457.34,7.36 455.33,7.64 C452.94,7.97 452.81,7.88 454.50,7.08 C456.16,6.30 455.85,6.13 452.70,6.07 C449.88,6.02 448.31,6.64 446.59,8.50 C444.22,11.06 442.00,11.78 442.00,10.00 C442.00,9.45 442.79,8.99 443.75,8.97 C445.39,8.94 445.39,8.85 443.69,7.57 C441.97,6.26 441.99,6.12 444.16,4.60 C446.63,2.87 449.00,2.50 449.00,3.83 C449.00,4.29 450.27,4.67 451.82,4.67 C453.38,4.67 459.41,6.99 465.23,9.82 C473.65,13.92 477.47,16.54 483.98,22.66 C498.57,36.39 507.33,51.80 510.91,70.07 C511.47,72.94 511.82,61.38 511.89,37.25 L 512.00 0.00 L 512.00 512.00 L 0.00 512.00 L 0.00 0.00 L 0.10 40.25 C0.19,76.72 0.32,79.75 1.48,72.50 C4.47,53.89 12.96,37.99 27.15,24.43 C35.31,16.64 38.83,14.12 48.01,9.50 C56.77,5.08 60.75,3.78 61.55,5.07 C61.86,5.58 61.30,6.03 60.31,6.07 C58.69,6.13 58.71,6.23 60.50,7.00 C61.94,7.62 62.06,7.88 60.94,7.93 C60.07,7.97 58.51,9.69 57.46,11.75 C55.86,14.88 55.54,17.70 55.52,28.75 C55.51,36.03 55.84,41.99 56.25,42.00 C56.66,42.00 57.00,42.48 57.00,43.06 C57.00,43.64 56.61,43.87 56.12,43.58 C55.64,43.28 55.25,44.16 55.25,45.54 C55.25,47.57 55.51,47.82 56.65,46.88 C57.42,46.24 58.34,46.00 58.69,46.36 C59.04,46.71 58.82,47.00 58.19,47.00 C57.56,47.00 56.34,48.37 55.47,50.05 C54.60,51.73 52.19,54.81 50.10,56.90 C40.88,66.12 35.74,76.84 33.09,92.38 C32.16,97.81 33.46,171.49 34.53,174.25 C34.92,175.24 36.25,176.00 37.61,176.00 C39.77,176.00 40.00,176.43 40.00,180.38 C40.00,185.23 40.98,186.43 45.69,187.32 C48.30,187.82 49.00,187.56 49.51,185.96 C50.04,184.30 51.05,184.00 56.04,184.00 L 61.95 184.00 L 61.76 190.39 C61.55,197.52 62.59,199.53 66.97,200.49 C68.52,200.83 70.58,201.99 71.55,203.06 C72.52,204.13 74.29,205.00 75.49,205.00 C77.74,205.00 80.00,208.45 80.00,211.88 C80.00,212.86 81.15,214.28 82.57,215.04 C83.99,215.80 85.37,217.60 85.67,219.09 C86.20,221.73 88.67,223.60 92.39,224.20 C93.43,224.36 94.67,225.29 95.14,226.25 C95.61,227.21 96.38,228.79 96.85,229.75 C97.56,231.19 99.51,231.59 108.00,232.00 C118.58,232.51 118.98,232.69 120.41,237.27 C120.71,238.25 121.75,239.29 122.73,239.59 C126.21,240.67 127.46,241.72 128.00,244.00 C128.91,247.85 131.29,248.63 135.86,246.56 C138.08,245.56 140.67,245.04 141.62,245.41 C144.00,246.32 144.97,244.38 144.98,238.65 C144.99,235.99 145.61,232.61 146.35,231.15 C150.06,223.84 151.05,221.09 151.63,216.50 C151.98,213.75 153.10,210.57 154.13,209.44 C155.66,207.74 156.07,205.32 156.41,195.94 C157.05,178.14 158.85,151.32 160.00,142.50 C160.57,138.10 161.18,132.93 161.36,131.00 C161.36,130.94 161.37,130.92 161.37,130.92 C161.55,130.92 161.75,161.97 161.84,201.49 L 162.00 275.48 L 186.50 251.00 L 211.00 226.52 L 211.00 171.87 L 242.75 172.19 L 274.50 172.50 L 280.45 175.29 L 286.40 178.07 L 302.77 161.79 C317.40,147.24 319.12,145.82 318.86,148.50 C318.71,150.15 318.01,152.20 317.31,153.05 C316.62,153.91 315.90,155.57 315.72,156.76 C315.54,157.94 314.56,159.83 313.54,160.96 C311.78,162.90 312.53,163.85 314.55,162.25 C315.07,161.84 314.60,162.46 313.50,163.63 C312.40,164.81 311.25,165.71 310.95,165.63 C309.52,165.29 300.01,173.58 300.47,174.77 C300.75,175.51 300.53,175.83 299.99,175.49 C298.70,174.70 298.71,176.25 300.00,177.80 C300.73,178.67 300.67,178.73 299.80,178.00 C298.25,176.71 296.70,176.70 297.49,177.99 C297.84,178.56 297.44,178.72 296.55,178.38 C295.29,177.90 294.64,178.72 295.07,180.25 C295.11,180.39 294.64,181.80 294.04,183.40 C293.08,185.92 293.13,186.14 294.42,185.06 C295.24,184.38 296.40,184.13 297.00,184.50 C297.60,184.87 298.84,184.57 299.75,183.84 C300.94,182.89 300.82,183.37 299.34,185.50 C297.18,188.63 297.30,189.73 300.32,194.19 C305.20,201.38 306.54,219.80 303.01,231.22 C299.15,243.74 291.17,252.93 279.84,257.90 C275.25,259.91 259.08,275.41 260.30,276.63 C260.68,277.01 265.38,276.79 270.74,276.14 C282.24,274.75 293.53,269.91 301.21,263.09 C307.77,257.25 315.17,245.78 318.06,236.95 C320.21,230.38 320.50,227.71 320.50,214.38 C320.50,203.47 320.82,199.38 321.64,199.69 C322.39,199.98 322.76,198.59 322.72,195.55 L 322.66 190.98 L 320.51 192.99 L 318.37 195.00 L 315.93 189.25 C314.60,186.09 313.50,183.05 313.50,182.50 C313.50,181.95 312.83,180.96 312.00,180.30 C310.72,179.28 311.34,178.26 316.17,173.39 L 321.85 167.68 L 325.86 174.02 C332.39,184.35 336.12,197.22 336.75,211.53 C337.84,236.54 331.01,254.93 314.50,271.48 C305.34,280.67 296.94,285.93 285.50,289.66 C278.47,291.95 275.39,292.32 260.00,292.73 L 242.50 293.19 L 236.18 299.35 C232.70,302.73 229.40,306.33 228.84,307.35 ZM 162.03 292.50 L 162.00 391.48 L 211.00 342.52 L 211.00 313.49 L 268.00 256.51 L 268.00 231.81 L 277.39 240.42 C284.66,247.10 286.91,248.68 287.39,247.44 C287.72,246.56 288.00,237.10 288.00,226.42 C288.00,214.14 288.37,207.00 289.00,207.00 C289.55,207.00 290.00,206.10 290.00,205.00 C290.00,202.53 291.56,202.40 292.89,204.75 C294.54,207.68 296.36,204.67 297.00,197.96 C297.46,193.18 297.30,192.05 296.24,192.46 C295.50,192.75 295.17,192.53 295.51,191.99 C296.37,190.59 292.64,190.76 291.21,192.19 C290.30,193.10 289.77,192.65 288.92,190.19 L 287.80 187.00 L 256.40 187.00 C239.13,187.00 225.00,187.33 225.00,187.73 C225.00,188.14 229.57,193.05 235.16,198.66 L 245.32 208.86 ZM 194.88 198.00 L 194.95 221.50 L 186.97 229.46 L 179.00 237.41 L 179.00 138.84 L 228.25 139.27 C271.17,139.64 278.26,139.92 283.44,141.43 C289.71,143.26 299.59,147.90 304.34,151.26 L 307.18 153.26 L 301.42 159.08 C298.25,162.29 295.24,164.65 294.74,164.34 C294.24,164.03 294.84,163.26 296.08,162.64 C297.33,162.01 298.52,160.97 298.73,160.32 C299.27,158.68 295.21,156.68 293.17,157.58 C292.25,157.99 291.16,158.25 290.75,158.16 C290.34,158.07 290.00,158.68 290.00,159.50 C290.00,161.30 289.54,161.35 286.68,159.85 C283.77,158.32 282.84,156.72 284.30,155.79 C285.20,155.22 285.17,155.03 284.19,155.02 C283.47,155.01 283.16,154.54 283.51,153.98 C283.86,153.42 284.56,153.23 285.07,153.54 C285.58,153.86 286.00,153.88 286.00,153.58 C286.00,152.47 279.98,150.00 277.30,150.02 C273.10,150.04 271.30,151.45 272.94,153.42 C274.04,154.75 273.98,155.00 272.56,155.00 C271.64,155.00 271.13,154.60 271.44,154.10 C272.46,152.44 268.89,152.00 254.42,152.00 C245.84,152.00 240.00,151.61 240.00,151.04 C240.00,149.83 227.13,149.86 224.86,151.07 C222.38,152.40 206.03,152.43 204.71,151.11 C202.83,149.23 200.64,149.92 197.05,153.53 C194.89,155.70 193.36,156.58 192.93,155.89 C192.51,155.20 192.02,155.15 191.65,155.76 C191.32,156.29 189.95,156.61 188.61,156.46 C187.22,156.31 185.21,157.09 183.94,158.27 C181.78,160.29 181.73,160.71 182.47,173.42 C183.50,191.30 184.57,202.37 185.65,206.25 C186.55,209.50 187.78,208.03 187.74,203.75 C187.72,201.41 188.45,197.35 189.35,194.72 C190.26,192.08 191.00,188.46 191.00,186.67 C191.00,184.87 191.41,182.97 191.92,182.45 C192.43,181.93 193.29,179.93 193.83,178.00 C194.56,175.43 194.84,180.74 194.88,198.00 ZM 195.02 322.02 L 195.00 336.55 L 179.00 352.45 L 179.00 299.45 L 207.79 270.73 C223.62,254.93 236.97,242.00 237.44,242.00 C237.92,242.00 237.56,242.82 236.65,243.83 C235.74,244.84 235.33,246.04 235.75,246.49 C236.16,246.95 235.98,247.03 235.35,246.67 C233.80,245.78 232.96,254.03 234.41,255.94 C235.21,257.00 235.20,257.20 234.35,256.70 C233.72,256.32 232.98,256.62 232.69,257.36 C232.34,258.29 232.90,258.63 234.50,258.45 C236.51,258.23 236.77,258.55 236.36,260.80 C235.89,263.38 235.91,263.39 237.94,261.55 C239.07,260.53 240.00,259.95 240.00,260.27 C240.00,260.59 229.89,271.34 217.52,284.17 L 195.05 307.50 ZM 0.15 473.25 L 0.00 512.00 L 36.25 511.89 C59.78,511.82 70.95,511.48 68.08,510.91 C56.30,508.60 41.36,501.67 32.32,494.31 C14.06,479.47 3.56,460.62 0.67,437.50 C0.47,435.85 0.23,451.94 0.15,473.25 ZM 446.59 510.52 C441.10,511.71 444.05,511.85 476.25,511.92 L 512.00 512.00 L 511.90 476.25 C511.81,443.35 511.69,441.00 510.42,446.80 C507.02,462.34 499.57,475.63 487.59,487.55 C475.25,499.83 462.26,507.11 446.59,510.52 ZM 218.42 231.64 C218.98,233.12 220.25,232.26 225.96,226.47 C231.93,220.42 232.68,219.26 231.74,217.51 C230.85,215.83 230.90,215.69 232.09,216.66 C233.26,217.63 233.51,217.16 233.58,213.88 C233.63,211.70 233.40,210.36 233.08,210.88 C232.75,211.40 230.61,208.93 228.31,205.39 C226.01,201.86 224.66,199.28 225.31,199.67 C226.04,200.11 225.98,199.75 225.16,198.74 C224.43,197.83 224.16,196.55 224.57,195.89 C225.01,195.17 224.89,194.95 224.26,195.34 C223.68,195.70 222.94,195.29 222.61,194.43 C222.27,193.55 221.51,193.19 220.84,193.60 C220.05,194.09 219.87,193.79 220.28,192.71 C220.71,191.59 220.47,191.27 219.48,191.65 C218.70,191.94 218.13,192.48 218.21,192.84 C218.29,193.21 217.87,195.30 217.27,197.50 C216.02,202.14 215.72,225.29 216.92,224.55 C217.37,224.27 218.52,224.92 219.49,225.99 C220.89,227.53 221.69,227.72 223.38,226.91 C225.47,225.90 225.47,225.91 223.50,227.47 C222.40,228.33 220.88,229.82 220.13,230.77 C218.88,232.34 218.80,232.28 219.32,230.11 C219.73,228.40 219.58,228.02 218.81,228.79 C218.22,229.38 218.04,230.67 218.42,231.64 ZM 288.48 438.63 C294.92,441.48 301.00,437.09 301.00,429.58 C301.00,423.02 298.16,420.00 292.00,420.00 C287.95,420.00 286.80,420.43 285.07,422.63 C281.18,427.58 283.02,436.21 288.48,438.63 ZM 176.02 438.88 C177.38,439.43 178.63,439.90 178.78,439.94 C178.94,439.97 180.58,439.37 182.42,438.60 C187.93,436.30 189.31,428.59 185.36,422.25 C184.21,420.41 183.06,420.00 178.98,420.00 C172.12,420.00 170.00,422.21 170.00,429.35 C170.00,435.03 171.22,436.97 176.02,438.88 ZM 193.13 435.75 C193.91,438.21 194.73,439.00 196.51,439.00 C198.54,439.00 199.02,438.26 200.09,433.50 C200.76,430.48 201.63,428.00 202.00,428.00 C202.37,428.00 203.24,430.50 203.93,433.56 C205.07,438.66 205.38,439.09 207.70,438.81 C209.96,438.53 210.45,437.68 212.14,431.00 C213.18,426.88 214.28,422.71 214.58,421.75 C215.01,420.39 214.56,420.00 212.57,420.00 C210.45,420.00 209.99,420.48 209.92,422.75 C209.88,424.26 209.29,427.30 208.62,429.50 L 207.39 433.50 L 206.64 430.50 C204.15,420.56 203.91,420.00 201.97,420.00 C200.42,420.00 199.65,421.28 198.33,426.03 C196.48,432.68 195.51,432.37 194.47,424.80 C193.89,420.54 193.53,420.00 191.34,420.00 C189.46,420.00 188.99,420.42 189.37,421.75 C189.65,422.71 190.38,425.52 191.00,428.00 C191.61,430.48 192.57,433.96 193.13,435.75 ZM 266.00 429.50 C266.00,438.97 266.01,439.00 268.50,439.00 C270.69,439.00 271.00,438.57 271.00,435.50 C271.00,433.58 271.46,432.00 272.02,432.00 C272.58,432.00 273.78,433.58 274.70,435.50 C275.90,438.01 277.02,439.00 278.69,439.00 C281.54,439.00 281.55,438.59 278.85,434.79 C276.81,431.92 276.78,431.63 278.35,428.98 C280.42,425.47 280.42,424.12 278.35,421.83 C277.13,420.49 275.25,420.00 271.35,420.00 L 266.00 420.00 ZM 232.00 429.50 C232.00,438.33 232.14,439.00 234.00,439.00 C235.62,439.00 236.00,438.33 236.00,435.50 C236.00,433.24 236.47,432.00 237.34,432.00 C238.08,432.00 239.53,433.58 240.57,435.50 C241.87,437.92 243.16,439.00 244.73,439.00 C247.53,439.00 247.54,438.57 244.90,434.86 C242.94,432.11 242.90,431.69 244.30,428.79 C247.05,423.12 244.59,420.00 237.38,420.00 L 232.00 420.00 ZM 154.00 429.50 C154.00,438.33 154.14,439.00 156.00,439.00 C157.54,439.00 158.00,438.33 158.00,436.11 C158.00,433.79 158.54,433.08 160.75,432.53 C164.70,431.55 167.00,429.11 167.00,425.92 C167.00,421.75 164.61,420.00 158.93,420.00 L 154.00 420.00 ZM 250.00 429.50 C250.00,438.33 250.14,439.00 252.00,439.00 C253.54,439.00 254.00,438.33 254.00,436.11 C254.00,433.79 254.54,433.08 256.75,432.53 C260.70,431.55 263.00,429.11 263.00,425.92 C263.00,421.75 260.61,420.00 254.93,420.00 L 250.00 420.00 ZM 217.00 420.00 L 217.00 439.10 L 222.67 438.80 C229.28,438.45 231.19,436.30 225.31,435.81 C222.24,435.56 221.44,435.07 221.18,433.25 C220.90,431.28 221.30,431.00 224.43,431.00 C227.33,431.00 228.00,430.63 228.00,429.00 C228.00,427.38 227.33,427.00 224.50,427.00 C221.67,427.00 221.00,426.62 221.00,425.00 C221.00,423.38 221.67,423.00 224.50,423.00 C226.94,423.00 228.00,422.55 228.00,421.50 C228.00,420.35 226.72,420.00 222.50,420.00 ZM 314.00 420.00 L 314.00 439.00 L 319.50 439.00 C323.72,439.00 325.00,438.65 325.00,437.50 C325.00,436.45 323.94,436.00 321.50,436.00 C318.43,436.00 318.00,435.69 318.00,433.50 C318.00,431.39 318.47,431.00 321.00,431.00 C323.33,431.00 324.00,430.56 324.00,429.00 C324.00,427.44 323.33,427.00 321.00,427.00 C318.67,427.00 318.00,426.56 318.00,425.00 C318.00,423.38 318.67,423.00 321.50,423.00 C323.94,423.00 325.00,422.55 325.00,421.50 C325.00,420.35 323.72,420.00 319.50,420.00 ZM 333.36 439.03 C334.54,439.52 336.40,439.72 337.50,439.47 C338.60,439.23 340.06,439.02 340.75,439.01 C341.44,439.01 342.00,438.13 342.00,437.06 C342.00,435.43 341.48,435.21 338.67,435.67 C334.45,436.35 332.00,434.09 332.00,429.50 C332.00,425.16 334.36,422.82 338.34,423.20 C340.64,423.42 341.53,423.05 341.79,421.75 C342.09,420.27 341.38,420.00 337.15,420.00 C332.93,420.00 331.82,420.42 330.07,422.63 C326.13,427.65 327.96,436.79 333.36,439.03 ZM 348.79 431.25 C349.05,438.18 349.29,439.00 351.04,439.00 C352.82,439.00 353.00,438.28 353.00,431.00 C353.00,423.13 353.04,423.00 355.50,423.00 C357.06,423.00 358.00,422.43 358.00,421.50 C358.00,420.31 356.56,420.00 351.00,420.00 C345.60,420.00 344.00,420.33 344.00,421.43 C344.00,422.22 345.01,423.00 346.25,423.18 C348.33,423.48 348.52,424.08 348.79,431.25 ZM 301.00 443.12 C301.00,445.51 304.63,445.65 307.17,443.35 C308.73,441.94 309.00,440.08 309.00,430.85 C309.00,420.67 308.88,420.00 307.00,420.00 C305.13,420.00 305.00,420.67 305.00,430.09 C305.00,439.35 304.83,440.23 303.00,440.71 C301.89,441.00 301.00,442.07 301.00,443.12 ZM 181.80 434.80 C178.66,437.94 174.00,434.78 174.00,429.50 C174.00,425.85 176.14,423.00 178.87,423.00 C181.66,423.00 183.00,425.11 183.00,429.50 C183.00,431.76 182.46,434.14 181.80,434.80 ZM 295.64 433.43 C292.67,437.97 287.88,435.76 287.71,429.78 C287.58,425.27 289.53,422.81 292.91,423.20 C296.52,423.62 298.12,429.64 295.64,433.43 ZM 102.42 222.39 C98.36,223.95 96.43,222.43 97.42,218.44 C98.09,215.81 100.79,215.19 102.80,217.20 C104.49,218.89 104.29,221.67 102.42,222.39 ZM 258.50 426.00 C258.50,427.83 257.90,428.59 256.25,428.82 C254.33,429.09 254.00,428.68 254.00,426.00 C254.00,423.32 254.33,422.91 256.25,423.18 C257.90,423.41 258.50,424.17 258.50,426.00 ZM 162.50 426.00 C162.50,427.83 161.90,428.59 160.25,428.82 C158.33,429.09 158.00,428.68 158.00,426.00 C158.00,423.32 158.33,422.91 160.25,423.18 C161.90,423.41 162.50,424.17 162.50,426.00 ZM 315.89 184.64 C314.61,186.18 314.68,186.21 316.70,184.95 C317.92,184.19 318.73,183.40 318.52,183.19 C318.30,182.97 318.57,181.64 319.10,180.23 C319.77,178.49 319.73,177.33 318.98,176.59 C318.19,175.80 318.06,175.96 318.51,177.15 C318.95,178.31 318.63,178.76 317.43,178.65 C316.49,178.57 315.52,179.18 315.28,180.00 C314.90,181.33 314.97,181.33 315.91,180.00 C316.66,178.94 316.97,178.87 316.98,179.78 C316.99,180.49 316.33,181.32 315.50,181.64 C314.67,181.95 314.00,182.66 314.00,183.21 C314.00,183.76 314.74,183.93 315.64,183.58 C317.07,183.03 317.11,183.17 315.89,184.64 ZM 240.82 425.75 C241.08,427.58 240.66,428.00 238.57,428.00 C236.48,428.00 236.00,427.52 236.00,425.43 C236.00,423.34 236.42,422.92 238.25,423.18 C239.70,423.39 240.61,424.30 240.82,425.75 ZM 274.80 425.63 C274.97,426.79 274.45,428.00 273.65,428.30 C271.74,429.04 271.00,428.19 271.00,425.26 C271.00,422.19 274.36,422.52 274.80,425.63 ZM 43.00 171.89 C43.00,172.93 42.33,174.05 41.50,174.36 C40.42,174.78 40.00,174.25 40.00,172.47 C40.00,170.94 40.57,170.00 41.50,170.00 C42.33,170.00 43.00,170.85 43.00,171.89 ZM 378.00 249.50 C378.00,250.33 378.89,251.00 380.00,251.00 C381.11,251.00 382.00,250.33 382.00,249.50 C382.00,248.67 381.11,248.00 380.00,248.00 C378.89,248.00 378.00,248.67 378.00,249.50 ZM 228.84 222.00 C225.36,225.33 224.01,225.95 226.13,223.25 C227.83,221.08 230.26,219.07 231.24,219.03 C231.65,219.01 230.57,220.35 228.84,222.00 ZM 443.64 3.50 C442.82,4.32 440.87,4.94 439.32,4.86 C436.62,4.73 436.61,4.71 439.00,4.28 C440.38,4.03 441.93,3.42 442.45,2.92 C444.08,1.35 445.23,1.91 443.64,3.50 ZM 233.51 263.01 C233.84,263.56 234.54,264.00 235.06,264.00 C236.50,264.00 236.18,263.28 234.45,262.62 C233.56,262.28 233.16,262.44 233.51,263.01 Z" fill="rgb(26,28,33)"/>
<path d="M 0.12 38.75 C0.22,73.46 0.37,76.82 1.54,71.00 C2.00,68.70 2.60,66.31 3.31,63.89 C2.56,66.70 1.95,69.56 1.48,72.50 C0.32,79.75 0.19,76.72 0.10,40.25 L 0.00 0.00 L 473.50 0.00 C446.88,0.00 435.00,0.33 435.00,1.07 C435.00,1.70 435.86,1.86 437.09,1.47 C439.50,0.71 451.76,2.80 452.57,4.12 C452.87,4.60 454.12,5.00 455.34,5.00 C456.56,5.00 458.52,5.67 459.69,6.50 C460.87,7.32 465.04,9.62 468.96,11.62 C470.75,12.52 472.59,13.63 474.46,14.91 C471.87,13.21 469.01,11.67 465.23,9.82 C459.41,6.99 453.38,4.67 451.82,4.67 C450.27,4.67 449.00,4.29 449.00,3.83 C449.00,2.50 446.63,2.87 444.16,4.60 C441.99,6.12 441.97,6.26 443.69,7.57 C445.39,8.85 445.39,8.94 443.75,8.97 C442.79,8.99 442.00,9.45 442.00,10.00 C442.00,11.78 444.22,11.06 446.59,8.50 C448.31,6.64 449.88,6.02 452.70,6.07 C455.85,6.13 456.16,6.30 454.50,7.08 C452.81,7.88 452.94,7.97 455.33,7.64 C457.34,7.36 457.84,7.56 457.08,8.32 C455.60,9.80 455.72,11.28 457.25,10.41 C458.25,9.85 458.25,9.98 457.25,11.05 C455.81,12.60 455.56,14.39 456.89,13.57 C457.39,13.26 457.72,14.13 457.64,15.51 C457.56,16.88 457.11,18.00 456.64,18.00 C456.16,18.00 456.11,19.46 456.52,21.25 C456.93,23.04 457.32,29.23 457.38,35.00 C457.45,40.78 457.95,45.82 458.49,46.21 C459.13,46.66 459.06,47.34 458.29,48.11 C456.77,49.63 457.61,51.18 463.28,57.33 C465.73,59.99 468.31,63.92 469.02,66.05 C469.72,68.19 470.59,69.76 470.94,69.54 C471.67,69.09 473.02,71.95 476.11,80.50 C478.80,87.94 479.47,107.89 478.29,145.50 L 477.50 170.50 L 473.25 170.23 C469.69,170.01 469.00,170.26 469.00,171.81 C469.00,174.67 464.79,178.00 461.19,178.00 C458.35,178.00 458.00,178.32 458.00,180.83 C458.00,182.81 457.26,184.06 455.55,184.97 C454.20,185.69 452.97,187.19 452.80,188.29 C452.64,189.39 451.71,190.68 450.75,191.15 C449.79,191.62 448.21,192.39 447.25,192.86 C444.46,194.22 444.59,196.97 447.59,200.10 C449.12,201.69 449.95,203.05 449.44,203.11 C448.92,203.16 446.70,203.33 444.50,203.48 C438.66,203.88 434.96,205.04 432.86,207.14 C431.84,208.16 429.99,209.01 428.75,209.02 C425.80,209.04 424.32,210.06 423.87,212.39 C423.66,213.43 422.71,214.67 421.75,215.14 L 418.25 216.86 C417.29,217.33 416.34,218.57 416.14,219.61 C415.63,222.31 414.03,224.00 411.99,224.00 C411.02,224.00 409.49,225.12 408.59,226.50 C407.57,228.05 406.02,229.00 404.48,229.00 C403.11,229.00 402.00,229.46 402.00,230.02 C402.00,231.14 399.06,232.53 394.75,233.45 C393.00,233.82 392.00,234.69 392.00,235.82 C392.00,238.91 389.80,240.00 383.54,240.00 C378.21,240.00 377.35,240.27 376.49,242.25 C374.55,246.66 368.00,245.26 368.00,240.43 C368.00,237.87 364.31,231.00 362.93,231.00 C362.45,231.00 362.13,228.64 362.23,225.75 C362.38,221.02 361.35,216.75 358.87,211.76 C358.39,210.81 357.99,208.78 357.98,207.26 C357.97,205.11 357.75,204.83 357.00,206.00 C356.19,207.25 356.01,207.17 355.89,205.50 C355.50,200.09 355.17,198.72 354.09,198.05 C353.44,197.66 352.49,196.02 351.97,194.41 C351.06,191.61 351.04,191.64 351.53,195.00 C351.89,197.45 352.17,200.59 352.37,204.03 C352.12,201.50 351.78,199.19 351.36,197.21 C350.45,192.97 349.75,188.71 349.79,187.75 C349.84,186.79 349.47,186.00 348.97,186.00 C348.47,186.00 348.32,185.32 348.64,184.50 C348.95,183.68 348.72,183.00 348.11,183.00 C347.50,183.00 347.10,182.66 347.22,182.25 C347.35,181.84 345.94,178.26 344.10,174.31 C342.26,170.35 340.81,166.86 340.88,166.56 C340.95,166.25 340.21,165.15 339.25,164.10 C335.60,160.15 333.24,157.06 332.61,155.42 C332.25,154.48 331.75,153.89 331.51,154.11 C331.27,154.32 323.46,162.08 314.15,171.34 L 298.41 187.00 C298.65,186.54 298.96,186.05 299.34,185.50 C300.82,183.37 300.94,182.89 299.75,183.84 C298.84,184.57 297.60,184.87 297.00,184.50 C296.40,184.13 295.24,184.38 294.42,185.06 C293.13,186.14 293.08,185.92 294.04,183.40 C294.64,181.80 295.11,180.39 295.07,180.25 C294.64,178.72 295.29,177.90 296.55,178.38 C297.44,178.72 297.84,178.56 297.49,177.99 C296.70,176.70 298.25,176.71 299.80,178.00 C300.67,178.73 300.73,178.67 300.00,177.80 C298.71,176.25 298.70,174.70 299.99,175.49 C300.53,175.83 300.75,175.51 300.47,174.77 C300.01,173.58 309.52,165.29 310.95,165.63 C311.25,165.71 312.40,164.81 313.50,163.63 C314.60,162.46 315.07,161.84 314.55,162.25 C312.53,163.85 311.78,162.90 313.54,160.96 C314.56,159.83 315.54,157.94 315.72,156.76 C315.90,155.57 316.62,153.91 317.31,153.05 C318.01,152.20 318.71,150.15 318.86,148.50 C319.12,145.82 317.40,147.24 302.77,161.79 L 288.14 176.34 L 303.46 160.98 L 320.50 143.87 L 316.85 140.69 C307.95,132.91 291.99,126.00 278.42,124.04 C274.49,123.47 247.84,123.03 216.75,123.02 L 162.00 123.00 L 162.00 275.48 L 161.84 201.49 C161.75,161.97 161.55,130.92 161.37,130.92 C161.37,130.92 161.36,130.94 161.36,131.00 C161.18,132.93 160.57,138.10 160.00,142.50 C158.85,151.32 157.05,178.14 156.41,195.94 C156.07,205.32 155.66,207.74 154.13,209.44 C153.10,210.57 151.98,213.75 151.63,216.50 C151.05,221.09 150.06,223.84 146.35,231.15 C145.61,232.61 144.99,235.99 144.98,238.65 C144.97,244.38 144.00,246.32 141.62,245.41 C140.67,245.04 138.08,245.56 135.86,246.56 C131.29,248.63 128.91,247.85 128.00,244.00 C127.46,241.72 126.21,240.67 122.73,239.59 C121.75,239.29 120.71,238.25 120.41,237.27 C118.98,232.69 118.58,232.51 108.00,232.00 C99.51,231.59 97.56,231.19 96.85,229.75 C96.38,228.79 95.61,227.21 95.14,226.25 C94.67,225.29 93.43,224.36 92.39,224.20 C88.67,223.60 86.20,221.73 85.67,219.09 C85.37,217.60 83.99,215.80 82.57,215.04 C81.15,214.28 80.00,212.86 80.00,211.88 C80.00,208.45 77.74,205.00 75.49,205.00 C74.29,205.00 72.52,204.13 71.55,203.06 C70.58,201.99 68.52,200.83 66.97,200.49 C62.59,199.53 61.55,197.52 61.76,190.39 L 61.95 184.00 L 56.04 184.00 C51.05,184.00 50.04,184.30 49.51,185.96 C49.00,187.56 48.30,187.82 45.69,187.32 C40.98,186.43 40.00,185.23 40.00,180.38 C40.00,176.43 39.77,176.00 37.61,176.00 C36.25,176.00 34.92,175.24 34.53,174.25 C33.46,171.49 32.16,97.81 33.09,92.38 C35.74,76.84 40.88,66.12 50.10,56.90 C52.19,54.81 54.60,51.73 55.47,50.05 C56.34,48.37 57.56,47.00 58.19,47.00 C58.82,47.00 59.04,46.71 58.69,46.36 C58.34,46.00 57.42,46.24 56.65,46.88 C55.51,47.82 55.25,47.57 55.25,45.54 C55.25,44.16 55.64,43.28 56.12,43.58 C56.61,43.87 57.00,43.64 57.00,43.06 C57.00,42.48 56.66,42.00 56.25,42.00 C55.84,41.99 55.51,36.03 55.52,28.75 C55.54,17.70 55.86,14.88 57.46,11.75 C58.51,9.69 60.07,7.97 60.94,7.93 C62.06,7.88 61.94,7.62 60.50,7.00 C58.71,6.23 58.69,6.13 60.31,6.07 C61.30,6.03 61.86,5.58 61.55,5.07 C61.19,4.50 60.21,4.44 58.46,4.93 C63.24,3.14 67.93,1.80 72.00,1.14 C75.80,0.51 65.54,0.20 38.75,0.12 L 0.00 0.00 ZM 194.88 198.00 C194.84,180.74 194.56,175.43 193.83,178.00 C193.29,179.93 192.43,181.93 191.92,182.45 C191.41,182.97 191.00,184.87 191.00,186.67 C191.00,188.46 190.26,192.08 189.35,194.72 C188.45,197.35 187.72,201.41 187.74,203.75 C187.78,208.03 186.55,209.50 185.65,206.25 C184.57,202.37 183.50,191.30 182.47,173.42 C181.73,160.71 181.78,160.29 183.94,158.27 C185.21,157.09 187.22,156.31 188.61,156.46 C189.95,156.61 191.32,156.29 191.65,155.76 C192.02,155.15 192.51,155.20 192.93,155.89 C193.36,156.58 194.89,155.70 197.05,153.53 C200.64,149.92 202.83,149.23 204.71,151.11 C206.03,152.43 222.38,152.40 224.86,151.07 C227.13,149.86 240.00,149.83 240.00,151.04 C240.00,151.61 245.84,152.00 254.42,152.00 C268.89,152.00 272.46,152.44 271.44,154.10 C271.13,154.60 271.64,155.00 272.56,155.00 C273.98,155.00 274.04,154.75 272.94,153.42 C271.30,151.45 273.10,150.04 277.30,150.02 C279.98,150.00 286.00,152.47 286.00,153.58 C286.00,153.88 285.58,153.86 285.07,153.54 C284.56,153.23 283.86,153.42 283.51,153.98 C283.16,154.54 283.47,155.01 284.19,155.02 C285.17,155.03 285.20,155.22 284.30,155.79 C282.84,156.72 283.77,158.32 286.68,159.85 C289.54,161.35 290.00,161.30 290.00,159.50 C290.00,158.68 290.34,158.07 290.75,158.16 C291.16,158.25 292.25,157.99 293.17,157.58 C295.21,156.68 299.27,158.68 298.73,160.32 C298.52,160.97 297.33,162.01 296.08,162.64 C295.02,163.17 294.42,163.81 294.59,164.18 C294.37,164.16 294.17,164.09 293.97,163.98 C293.03,163.48 291.98,163.35 291.63,163.70 C291.28,164.05 291.00,163.91 291.00,163.38 C291.00,162.07 285.20,158.76 284.10,159.44 C283.61,159.74 281.25,159.29 278.86,158.44 C275.24,157.15 267.74,156.86 234.75,156.69 L 195.00 156.50 L 194.95 221.50 ZM 268.00 253.71 L 267.50 233.50 L 231.25 270.37 L 209.82 292.17 L 217.52 284.17 C229.89,271.34 240.00,260.59 240.00,260.27 C240.00,259.95 239.07,260.53 237.94,261.55 C235.91,263.39 235.89,263.38 236.36,260.80 C236.77,258.55 236.51,258.23 234.50,258.45 C232.90,258.63 232.34,258.29 232.69,257.36 C232.98,256.62 233.72,256.32 234.35,256.70 C235.20,257.20 235.21,257.00 234.41,255.94 C232.96,254.03 233.80,245.78 235.35,246.67 C235.98,247.03 236.16,246.95 235.75,246.49 C235.33,246.04 235.74,244.84 236.65,243.83 C237.56,242.82 237.92,242.00 237.44,242.00 C236.97,242.00 223.62,254.93 207.79,270.73 L 179.00 299.45 L 179.00 352.45 L 190.89 340.63 L 186.50 345.00 L 178.00 353.46 L 178.00 299.49 L 222.97 254.53 L 267.93 209.58 L 268.22 220.91 L 268.50 232.25 L 277.75 240.75 L 278.12 241.10 C277.88,240.88 277.64,240.65 277.39,240.42 L 268.00 231.81 ZM 218.42 231.64 C218.04,230.67 218.22,229.38 218.81,228.79 C219.58,228.02 219.73,228.40 219.32,230.11 C218.80,232.28 218.88,232.34 220.13,230.77 C220.88,229.82 222.40,228.33 223.50,227.47 C225.47,225.91 225.47,225.90 223.38,226.91 C221.69,227.72 220.89,227.53 219.49,225.99 C218.52,224.92 217.37,224.27 216.92,224.55 C215.72,225.29 216.02,202.14 217.27,197.50 C217.87,195.30 218.29,193.21 218.21,192.84 C218.13,192.48 218.70,191.94 219.48,191.65 C220.47,191.27 220.71,191.59 220.28,192.71 C219.87,193.79 220.05,194.09 220.84,193.60 C221.51,193.19 222.27,193.55 222.61,194.43 C222.94,195.29 223.68,195.70 224.26,195.34 C224.89,194.95 225.01,195.17 224.57,195.89 C224.16,196.55 224.43,197.83 225.16,198.74 C225.98,199.75 226.04,200.11 225.31,199.67 C224.66,199.28 226.01,201.86 228.31,205.39 C230.61,208.93 232.75,211.40 233.08,210.88 C233.40,210.36 233.63,211.70 233.58,213.88 C233.51,217.16 233.26,217.63 232.09,216.66 C230.90,215.69 230.85,215.83 231.74,217.51 C232.68,219.26 231.93,220.42 225.96,226.47 C220.25,232.26 218.98,233.12 218.42,231.64 ZM 287.00 247.81 L 287.00 187.00 L 287.80 187.00 L 288.92 190.19 C289.77,192.65 290.30,193.10 291.21,192.19 C292.64,190.76 296.37,190.59 295.51,191.99 C295.17,192.53 295.50,192.75 296.24,192.46 C297.30,192.05 297.46,193.18 297.00,197.96 C296.36,204.67 294.54,207.68 292.89,204.75 C291.56,202.40 290.00,202.53 290.00,205.00 C290.00,206.10 289.55,207.00 289.00,207.00 C288.37,207.00 288.00,214.14 288.00,226.42 C288.00,237.10 287.72,246.56 287.39,247.44 C287.31,247.64 287.18,247.76 287.00,247.81 ZM 320.54 208.58 C319.63,199.57 317.23,191.04 313.48,184.99 L 310.09 179.50 L 315.72 173.80 C316.33,173.18 316.93,172.59 317.51,172.04 L 316.17 173.39 C311.34,178.26 310.72,179.28 312.00,180.30 C312.83,180.96 313.50,181.95 313.50,182.50 C313.50,183.05 314.60,186.09 315.93,189.25 L 318.37 195.00 L 320.51 192.99 L 322.66 190.98 L 322.72 195.55 C322.76,198.59 322.39,199.98 321.64,199.69 C320.98,199.44 320.65,202.00 320.54,208.58 ZM 102.42 222.39 C104.29,221.67 104.49,218.89 102.80,217.20 C100.79,215.19 98.09,215.81 97.42,218.44 C96.43,222.43 98.36,223.95 102.42,222.39 ZM 315.89 184.64 C317.11,183.17 317.07,183.03 315.64,183.58 C314.74,183.93 314.00,183.76 314.00,183.21 C314.00,182.66 314.67,181.95 315.50,181.64 C316.33,181.32 316.99,180.49 316.98,179.78 C316.97,178.87 316.66,178.94 315.91,180.00 C314.97,181.33 314.90,181.33 315.28,180.00 C315.52,179.18 316.49,178.57 317.43,178.65 C318.63,178.76 318.95,178.31 318.51,177.15 C318.06,175.96 318.19,175.80 318.98,176.59 C319.73,177.33 319.77,178.49 319.10,180.23 C318.57,181.64 318.30,182.97 318.52,183.19 C318.73,183.40 317.92,184.19 316.70,184.95 C314.68,186.21 314.61,186.18 315.89,184.64 ZM 166.16 288.35 L 245.32 208.86 L 245.48 209.01 L 203.74 250.76 ZM 43.00 171.89 C43.00,170.85 42.33,170.00 41.50,170.00 C40.57,170.00 40.00,170.94 40.00,172.47 C40.00,174.25 40.42,174.78 41.50,174.36 C42.33,174.05 43.00,172.93 43.00,171.89 ZM 378.00 249.50 C378.00,248.67 378.89,248.00 380.00,248.00 C381.11,248.00 382.00,248.67 382.00,249.50 C382.00,250.33 381.11,251.00 380.00,251.00 C378.89,251.00 378.00,250.33 378.00,249.50 ZM 228.84 222.00 C230.57,220.35 231.65,219.01 231.24,219.03 C230.26,219.07 227.83,221.08 226.13,223.25 C224.01,225.95 225.36,225.33 228.84,222.00 ZM 443.64 3.50 C445.23,1.91 444.08,1.35 442.45,2.92 C441.93,3.42 440.38,4.03 439.00,4.28 C436.61,4.71 436.62,4.73 439.32,4.86 C440.87,4.94 442.82,4.32 443.64,3.50 ZM 38.24 498.56 C47.09,504.21 58.61,509.05 68.08,510.91 C57.32,508.80 47.21,504.52 38.24,498.56 ZM 285.09 272.59 C292.96,269.53 299.86,264.80 305.50,258.64 C304.06,260.32 302.62,261.83 301.21,263.09 C296.81,267.00 291.22,270.26 285.09,272.59 ZM 21.88 29.87 C17.24,35.05 13.35,40.55 10.22,46.38 C11.99,42.86 13.90,39.65 15.82,37.01 C17.23,35.06 19.41,32.52 21.88,29.87 ZM 233.51 263.01 C233.16,262.44 233.56,262.28 234.45,262.62 C236.18,263.28 236.50,264.00 235.06,264.00 C234.54,264.00 233.84,263.56 233.51,263.01 ZM 297.88 189.33 L 299.71 192.60 C300.43,193.89 301.08,195.21 301.64,196.58 C301.24,195.69 300.80,194.88 300.32,194.19 C298.81,191.95 298.02,190.56 297.88,189.33 ZM 481.26 20.18 C490.11,27.82 498.60,38.21 503.31,47.74 C503.65,48.42 504.01,49.20 504.37,50.04 C499.66,40.10 492.91,31.07 483.98,22.66 C483.02,21.76 482.13,20.94 481.26,20.18 ZM 301.85 234.58 C297.90,245.14 290.33,253.29 279.84,257.90 C290.13,253.38 297.66,245.39 301.85,234.58 ZM 322.82 169.22 C323.77,170.30 325.10,172.43 326.51,175.08 C326.30,174.72 326.08,174.37 325.86,174.02 ZM 0.55 438.45 C0.59,437.53 0.63,437.18 0.67,437.50 C0.93,439.55 1.24,441.56 1.62,443.54 ZM 318.06 236.95 C317.75,237.90 317.38,238.89 316.97,239.90 C317.22,239.26 317.45,238.62 317.68,237.98 C318.75,234.95 319.55,231.64 320.09,228.18 C319.75,231.35 319.14,233.66 318.06,236.95 ZM 268.00 256.51 L 239.53 284.97 L 268.00 256.49 ZM 296.02 163.81 C297.30,162.95 299.32,161.20 301.42,159.08 C298.82,161.71 297.19,163.17 296.02,163.81 ZM 352.02 231.76 C351.69,233.79 351.26,235.89 350.74,238.02 C351.06,236.73 351.34,235.44 351.58,234.16 C351.92,232.40 352.20,230.40 352.41,228.25 C352.31,229.61 352.18,230.79 352.02,231.76 ZM 303.89 204.01 C304.34,206.24 304.65,208.60 304.82,211.13 C304.64,208.66 304.33,206.25 303.89,204.01 ZM 34.60 17.76 C33.11,18.96 31.56,20.31 29.82,21.92 C31.54,20.32 33.18,18.88 34.60,17.76 ZM 49.08 8.96 C48.73,9.13 48.37,9.31 48.01,9.50 C47.23,9.89 46.50,10.26 45.80,10.62 C46.88,10.05 47.97,9.50 49.08,8.96 Z" fill="rgb(44,49,56)"/>
<path d="M 312.90 140.05 C315.43,142.21 318.13,143.99 318.90,143.99 C319.70,144.00 319.65,143.43 319.07,142.62 L 320.50 143.87 L 288.14 176.34 L 286.40 178.07 L 280.45 175.29 L 274.50 172.50 L 242.75 172.19 L 211.00 171.87 L 211.00 226.52 L 186.50 251.00 L 162.00 275.48 L 162.00 123.00 L 216.75 123.02 C223.16,123.02 229.37,123.04 235.24,123.08 C202.24,122.96 163.18,123.43 166.00,124.35 C168.44,125.15 185.13,125.52 221.00,125.57 C249.32,125.61 273.62,125.91 275.00,126.25 C276.38,126.59 281.00,127.44 285.28,128.14 C289.56,128.84 293.84,130.10 294.78,130.95 C295.73,131.80 297.40,132.63 298.50,132.80 C302.87,133.45 308.53,136.30 312.90,140.05 ZM 162.03 292.50 L 166.16 288.35 L 203.74 250.76 L 245.48 209.01 L 245.32 208.86 L 235.16 198.66 C229.57,193.05 225.00,188.14 225.00,187.73 C225.00,187.33 239.13,187.00 256.40,187.00 L 287.00 187.00 L 287.00 247.81 C286.09,248.02 283.69,246.18 278.12,241.10 L 277.75 240.75 L 268.50 232.25 L 268.22 220.91 L 267.93 209.58 L 222.97 254.53 L 178.00 299.49 L 178.00 353.46 L 186.50 345.00 L 190.86 340.66 L 190.89 340.63 L 195.00 336.55 L 195.02 322.02 L 195.05 307.50 L 209.82 292.17 L 231.25 270.37 L 267.50 233.50 L 267.78 244.96 L 268.00 253.71 L 268.00 256.49 L 239.55 284.95 L 239.53 284.97 L 211.00 313.49 L 211.00 342.52 L 162.00 391.48 ZM 228.84 307.35 C229.40,306.33 232.70,302.73 236.18,299.35 L 242.50 293.19 L 260.00 292.73 C275.39,292.32 278.47,291.95 285.50,289.66 C296.94,285.93 305.34,280.67 314.50,271.48 C331.01,254.93 337.84,236.54 336.75,211.53 C336.15,197.71 332.64,185.22 326.51,175.08 C325.10,172.43 323.77,170.30 322.82,169.22 L 321.85 167.68 L 317.51 172.04 C316.93,172.59 316.33,173.18 315.72,173.80 L 310.09 179.50 L 313.48 184.99 C317.23,191.04 319.63,199.57 320.54,208.58 C320.51,210.25 320.50,212.17 320.50,214.38 C320.50,221.03 320.43,225.03 320.09,228.18 C319.55,231.64 318.75,234.95 317.68,237.98 C317.45,238.62 317.22,239.26 316.97,239.90 C314.39,246.20 310.02,253.31 305.50,258.64 C299.86,264.80 292.96,269.53 285.09,272.59 C280.52,274.33 275.65,275.55 270.74,276.14 C265.38,276.79 260.68,277.01 260.30,276.63 C259.08,275.41 275.25,259.91 279.84,257.90 C290.33,253.29 297.90,245.14 301.85,234.58 L 301.85 234.58 C302.27,233.48 302.66,232.36 303.01,231.22 C304.78,225.51 305.32,218.06 304.82,211.13 C304.82,211.13 304.82,211.12 304.82,211.12 C304.65,208.59 304.34,206.23 303.89,204.01 C303.34,201.19 302.58,198.65 301.64,196.58 C301.08,195.21 300.43,193.89 299.71,192.60 L 297.88 189.33 C297.80,188.55 297.98,187.83 298.41,187.00 L 314.15 171.34 C323.46,162.08 331.27,154.32 331.51,154.11 C331.75,153.89 332.25,154.48 332.61,155.42 C333.24,157.06 335.60,160.15 339.25,164.10 C340.21,165.15 340.95,166.25 340.88,166.56 C340.81,166.86 342.26,170.35 344.10,174.31 C345.94,178.26 347.35,181.84 347.22,182.25 C347.10,182.66 347.50,183.00 348.11,183.00 C348.72,183.00 348.95,183.68 348.64,184.50 C348.32,185.32 348.47,186.00 348.97,186.00 C349.47,186.00 349.84,186.79 349.79,187.75 C349.75,188.71 350.45,192.97 351.36,197.21 C351.78,199.19 352.12,201.50 352.37,204.03 C352.86,212.19 352.89,222.02 352.41,228.25 C352.20,230.40 351.92,232.40 351.58,234.16 C351.34,235.44 351.06,236.73 350.74,238.02 C347.68,250.57 341.50,264.26 334.92,272.65 C325.20,285.03 311.57,296.11 299.47,301.48 C285.60,307.62 281.58,308.26 253.66,308.75 C228.75,309.18 227.86,309.13 228.84,307.35 ZM 296.02 163.81 C297.19,163.17 298.82,161.71 301.42,159.08 L 307.18 153.26 L 304.34 151.26 C299.59,147.90 289.71,143.26 283.44,141.43 C278.26,139.92 271.17,139.64 228.25,139.27 L 179.00 138.84 L 179.00 237.41 L 194.95 221.50 L 195.00 156.50 L 234.75 156.69 C267.74,156.86 275.24,157.15 278.86,158.44 C281.25,159.29 283.61,159.74 284.10,159.44 C285.20,158.76 291.00,162.07 291.00,163.38 C291.00,163.91 291.28,164.05 291.63,163.70 C291.98,163.35 293.03,163.48 293.97,163.98 C294.17,164.09 294.37,164.16 294.59,164.18 C294.62,164.24 294.67,164.29 294.74,164.34 C294.91,164.44 295.37,164.24 296.02,163.81 ZM 288.48 438.63 C283.02,436.21 281.18,427.58 285.07,422.63 C286.80,420.43 287.95,420.00 292.00,420.00 C298.16,420.00 301.00,423.02 301.00,429.58 C301.00,437.09 294.92,441.48 288.48,438.63 ZM 176.02 438.88 C171.22,436.97 170.00,435.03 170.00,429.35 C170.00,422.21 172.12,420.00 178.98,420.00 C183.06,420.00 184.21,420.41 185.36,422.25 C189.31,428.59 187.93,436.30 182.42,438.60 C180.58,439.37 178.94,439.97 178.78,439.94 C178.63,439.90 177.38,439.43 176.02,438.88 ZM 193.13 435.75 C192.57,433.96 191.61,430.48 191.00,428.00 C190.38,425.52 189.65,422.71 189.37,421.75 C188.99,420.42 189.46,420.00 191.34,420.00 C193.53,420.00 193.89,420.54 194.47,424.80 C195.51,432.37 196.48,432.68 198.33,426.03 C199.65,421.28 200.42,420.00 201.97,420.00 C203.91,420.00 204.15,420.56 206.64,430.50 L 207.39 433.50 L 208.62 429.50 C209.29,427.30 209.88,424.26 209.92,422.75 C209.99,420.48 210.45,420.00 212.57,420.00 C214.56,420.00 215.01,420.39 214.58,421.75 C214.28,422.71 213.18,426.88 212.14,431.00 C210.45,437.68 209.96,438.53 207.70,438.81 C205.38,439.09 205.07,438.66 203.93,433.56 C203.24,430.50 202.37,428.00 202.00,428.00 C201.63,428.00 200.76,430.48 200.09,433.50 C199.02,438.26 198.54,439.00 196.51,439.00 C194.73,439.00 193.91,438.21 193.13,435.75 ZM 266.00 429.50 L 266.00 420.00 L 271.35 420.00 C275.25,420.00 277.13,420.49 278.35,421.83 C280.42,424.12 280.42,425.47 278.35,428.98 C276.78,431.63 276.81,431.92 278.85,434.79 C281.55,438.59 281.54,439.00 278.69,439.00 C277.02,439.00 275.90,438.01 274.70,435.50 C273.78,433.58 272.58,432.00 272.02,432.00 C271.46,432.00 271.00,433.58 271.00,435.50 C271.00,438.57 270.69,439.00 268.50,439.00 C266.01,439.00 266.00,438.97 266.00,429.50 ZM 232.00 429.50 L 232.00 420.00 L 237.38 420.00 C244.59,420.00 247.05,423.12 244.30,428.79 C242.90,431.69 242.94,432.11 244.90,434.86 C247.54,438.57 247.53,439.00 244.73,439.00 C243.16,439.00 241.87,437.92 240.57,435.50 C239.53,433.58 238.08,432.00 237.34,432.00 C236.47,432.00 236.00,433.24 236.00,435.50 C236.00,438.33 235.62,439.00 234.00,439.00 C232.14,439.00 232.00,438.33 232.00,429.50 ZM 154.00 429.50 L 154.00 420.00 L 158.93 420.00 C164.61,420.00 167.00,421.75 167.00,425.92 C167.00,429.11 164.70,431.55 160.75,432.53 C158.54,433.08 158.00,433.79 158.00,436.11 C158.00,438.33 157.54,439.00 156.00,439.00 C154.14,439.00 154.00,438.33 154.00,429.50 ZM 250.00 429.50 L 250.00 420.00 L 254.93 420.00 C260.61,420.00 263.00,421.75 263.00,425.92 C263.00,429.11 260.70,431.55 256.75,432.53 C254.54,433.08 254.00,433.79 254.00,436.11 C254.00,438.33 253.54,439.00 252.00,439.00 C250.14,439.00 250.00,438.33 250.00,429.50 ZM 217.00 420.00 L 222.50 420.00 C226.72,420.00 228.00,420.35 228.00,421.50 C228.00,422.55 226.94,423.00 224.50,423.00 C221.67,423.00 221.00,423.38 221.00,425.00 C221.00,426.62 221.67,427.00 224.50,427.00 C227.33,427.00 228.00,427.38 228.00,429.00 C228.00,430.63 227.33,431.00 224.43,431.00 C221.30,431.00 220.90,431.28 221.18,433.25 C221.44,435.07 222.24,435.56 225.31,435.81 C231.19,436.30 229.28,438.45 222.67,438.80 L 217.00 439.10 ZM 314.00 420.00 L 319.50 420.00 C323.72,420.00 325.00,420.35 325.00,421.50 C325.00,422.55 323.94,423.00 321.50,423.00 C318.67,423.00 318.00,423.38 318.00,425.00 C318.00,426.56 318.67,427.00 321.00,427.00 C323.33,427.00 324.00,427.44 324.00,429.00 C324.00,430.56 323.33,431.00 321.00,431.00 C318.47,431.00 318.00,431.39 318.00,433.50 C318.00,435.69 318.43,436.00 321.50,436.00 C323.94,436.00 325.00,436.45 325.00,437.50 C325.00,438.65 323.72,439.00 319.50,439.00 L 314.00 439.00 ZM 333.36 439.03 C327.96,436.79 326.13,427.65 330.07,422.63 C331.82,420.42 332.93,420.00 337.15,420.00 C341.38,420.00 342.09,420.27 341.79,421.75 C341.53,423.05 340.64,423.42 338.34,423.20 C334.36,422.82 332.00,425.16 332.00,429.50 C332.00,434.09 334.45,436.35 338.67,435.67 C341.48,435.21 342.00,435.43 342.00,437.06 C342.00,438.13 341.44,439.01 340.75,439.01 C340.06,439.02 338.60,439.23 337.50,439.47 C336.40,439.72 334.54,439.52 333.36,439.03 ZM 348.79 431.25 C348.52,424.08 348.33,423.48 346.25,423.18 C345.01,423.00 344.00,422.22 344.00,421.43 C344.00,420.33 345.60,420.00 351.00,420.00 C356.56,420.00 358.00,420.31 358.00,421.50 C358.00,422.43 357.06,423.00 355.50,423.00 C353.04,423.00 353.00,423.13 353.00,431.00 C353.00,438.28 352.82,439.00 351.04,439.00 C349.29,439.00 349.05,438.18 348.79,431.25 ZM 301.00 443.12 C301.00,442.07 301.89,441.00 303.00,440.71 C304.83,440.23 305.00,439.35 305.00,430.09 C305.00,420.67 305.13,420.00 307.00,420.00 C308.88,420.00 309.00,420.67 309.00,430.85 C309.00,440.08 308.73,441.94 307.17,443.35 C304.63,445.65 301.00,445.51 301.00,443.12 ZM 181.80 434.80 C182.46,434.14 183.00,431.76 183.00,429.50 C183.00,425.11 181.66,423.00 178.87,423.00 C176.14,423.00 174.00,425.85 174.00,429.50 C174.00,434.78 178.66,437.94 181.80,434.80 ZM 295.64 433.43 C298.12,429.64 296.52,423.62 292.91,423.20 C289.53,422.81 287.58,425.27 287.71,429.78 C287.88,435.76 292.67,437.97 295.64,433.43 ZM 258.50 426.00 C258.50,424.17 257.90,423.41 256.25,423.18 C254.33,422.91 254.00,423.32 254.00,426.00 C254.00,428.68 254.33,429.09 256.25,428.82 C257.90,428.59 258.50,427.83 258.50,426.00 ZM 162.50 426.00 C162.50,424.17 161.90,423.41 160.25,423.18 C158.33,422.91 158.00,423.32 158.00,426.00 C158.00,428.68 158.33,429.09 160.25,428.82 C161.90,428.59 162.50,427.83 162.50,426.00 ZM 240.82 425.75 C240.61,424.30 239.70,423.39 238.25,423.18 C236.42,422.92 236.00,423.34 236.00,425.43 C236.00,427.52 236.48,428.00 238.57,428.00 C240.66,428.00 241.08,427.58 240.82,425.75 ZM 271.44 190.04 C272.64,191.24 273.34,191.25 274.55,190.08 C275.07,189.58 276.62,188.97 278.00,188.72 C279.38,188.47 274.20,188.30 266.50,188.34 C257.30,188.39 255.58,188.53 261.49,188.75 C266.44,188.93 270.92,189.52 271.44,190.04 ZM 274.80 425.63 C274.36,422.52 271.00,422.19 271.00,425.26 C271.00,428.19 271.74,429.04 273.65,428.30 C274.45,428.00 274.97,426.79 274.80,425.63 ZM 435.00 1.07 C435.00,0.33 446.88,0.00 473.50,0.00 L 512.00 0.00 L 474.75 0.10 C440.51,0.19 438.03,0.31 444.00,1.58 C445.16,1.82 446.34,2.10 447.43,2.39 C443.50,1.58 438.53,1.01 437.09,1.47 C435.86,1.86 435.00,1.70 435.00,1.07 ZM 315.00 139.16 C314.51,138.87 314.00,138.60 313.50,138.37 C311.85,137.63 308.70,135.67 306.50,134.02 C301.56,130.31 287.66,125.38 278.42,124.04 C291.10,125.87 305.86,132.03 315.00,139.16 ZM 1.54 71.00 C0.55,75.92 0.29,74.28 0.17,52.69 C0.33,65.11 0.63,73.30 0.95,72.50 C1.15,72.02 1.43,71.11 1.75,69.98 C1.68,70.32 1.61,70.66 1.54,71.00 ZM 0.55 438.45 L 1.62 443.54 C3.44,453.14 6.66,461.95 11.30,470.01 C7.24,463.06 4.22,455.56 2.51,447.75 C1.67,443.95 0.82,440.76 0.50,440.12 C0.51,439.44 0.53,438.89 0.55,438.45 ZM 58.37 4.96 C62.07,3.57 65.82,2.38 69.50,1.47 C71.62,0.94 71.55,0.62 67.05,0.43 C72.33,0.60 73.88,0.83 72.00,1.14 C67.93,1.80 63.24,3.14 58.46,4.93 C58.43,4.94 58.40,4.95 58.37,4.96 ZM 452.62 4.18 C453.57,4.65 454.90,5.00 455.76,5.00 C456.75,5.00 458.52,5.67 459.69,6.50 C458.52,5.67 456.56,5.00 455.34,5.00 C454.17,5.00 452.98,4.64 452.62,4.18 ZM 49.08 8.96 C47.97,9.50 46.88,10.05 45.80,10.62 C45.33,10.87 44.87,11.11 44.42,11.35 C46.28,10.33 48.21,9.34 50.20,8.41 C49.84,8.58 49.46,8.77 49.08,8.96 ZM 3.01 64.92 C3.19,64.15 3.44,63.25 3.76,62.26 C3.60,62.80 3.45,63.35 3.31,63.89 C3.21,64.23 3.11,64.58 3.01,64.92 ZM 14.76 38.52 C15.05,38.07 15.33,37.66 15.60,37.29 C15.79,37.03 15.99,36.76 16.21,36.48 C16.07,36.66 15.94,36.83 15.82,37.01 C15.47,37.49 15.11,38.00 14.76,38.52 ZM 34.60 17.76 L 34.60 17.76 C33.18,18.88 31.54,20.32 29.82,21.92 C29.62,22.11 29.41,22.30 29.21,22.49 C31.17,20.64 33.05,18.98 34.66,17.71 C34.64,17.72 34.62,17.74 34.60,17.76 Z" fill="rgb(131,229,203)"/>
<path d="M 0.00 476.00 C0.00,456.20 0.18,440.00 0.40,440.00 C0.62,440.00 1.57,443.49 2.51,447.75 C9.30,478.63 36.36,504.69 68.08,510.91 C70.95,511.48 59.78,511.82 36.25,511.89 L 0.00 512.00 L 0.00 476.00 ZM 446.59 510.52 C462.26,507.11 475.25,499.83 487.59,487.55 C499.57,475.63 507.02,462.34 510.42,446.80 C511.69,441.00 511.81,443.35 511.90,476.25 L 512.00 512.00 L 476.25 511.92 C444.05,511.85 441.10,511.71 446.59,510.52 ZM 271.44 190.04 C270.92,189.52 266.44,188.93 261.49,188.75 C255.58,188.53 257.30,188.39 266.50,188.34 C274.20,188.30 279.38,188.47 278.00,188.72 C276.62,188.97 275.07,189.58 274.55,190.08 C273.34,191.25 272.64,191.24 271.44,190.04 ZM 312.90 140.05 C308.53,136.30 302.87,133.45 298.50,132.80 C297.40,132.63 295.73,131.80 294.78,130.95 C293.84,130.10 289.56,128.84 285.28,128.14 C281.00,127.44 276.38,126.59 275.00,126.25 C273.62,125.91 249.32,125.61 221.00,125.57 C185.13,125.52 168.44,125.15 166.00,124.35 C161.41,122.85 268.10,122.55 278.42,124.04 C287.66,125.38 301.56,130.31 306.50,134.02 C308.70,135.67 311.85,137.63 313.50,138.37 C317.19,140.04 321.01,144.00 318.90,143.99 C318.13,143.99 315.43,142.21 312.90,140.05 ZM 0.07 37.25 L 0.00 0.00 L 37.25 0.11 C69.13,0.21 73.78,0.40 69.50,1.47 C57.34,4.49 44.28,10.48 35.56,17.01 C29.93,21.23 19.84,31.48 15.60,37.29 C11.62,42.74 4.43,58.56 2.99,65.00 C2.32,68.03 1.40,71.40 0.95,72.50 C0.50,73.60 0.10,57.74 0.07,37.25 ZM 511.00 71.55 C511.00,68.17 506.45,54.08 503.31,47.74 C496.39,33.74 481.32,17.89 468.96,11.62 C465.04,9.62 460.87,7.32 459.69,6.50 C458.52,5.67 456.75,5.00 455.76,5.00 C454.78,5.00 453.19,4.54 452.24,3.98 C451.28,3.41 447.58,2.33 444.00,1.58 C438.03,0.31 440.51,0.19 474.75,0.10 L 512.00 0.00 L 512.00 37.00 C512.00,57.35 511.77,74.00 511.50,74.00 C511.23,74.00 511.00,72.90 511.00,71.55 Z" fill="rgb(247,251,250)"/>
</g>
</svg>